<?xml version="1.0" encoding="UTF-8"?>
<svg id="Layer_1" data-name="Layer 1" xmlns="http://www.w3.org/2000/svg" viewBox="0 0 688.78 226.75">
  <defs>
    <style>
      .cls-1 {
        fill: none;
        isolation: isolate;
        opacity: .9;
        stroke: #bebfbd;
        stroke-dasharray: 6 6 6 6 6 6;
        stroke-linecap: square;
        stroke-linejoin: round;
        stroke-width: 3px;
      }

      .cls-2 {
        fill: #f68c22;
        stroke: #6e407f;
        stroke-width: .15px;
      }

      .cls-2, .cls-3 {
        stroke-miterlimit: 10;
      }

      .cls-4, .cls-3 {
        fill: #fff;
      }

      .cls-3 {
        stroke: #fff;
      }
    </style>
  </defs>
  <g>
    <path class="cls-1" d="M493.95,2.09c11.21,16.31-.93,35.36-8.31,50.43-13.22,27.04-40.42,82.47-47.62,97.3"/>
    <path class="cls-3" d="M82.93,226.25h-26.73V4.06H.5V.84h138.47v3.22h-56.03v222.19h-.01Z"/>
    <path class="cls-4" d="M191.45,226.25h-26.73V.84h26.73v103.69h104.65V.84h26.73v225.41h-26.73v-118.5h-104.65v118.5Z"/>
    <path class="cls-4" d="M439.72,149.93v76.32h-26.73v-69.23L348.59.84h27.37l61.5,145.23"/>
    <path class="cls-4" d="M635.82,14.37c-19.54-7.51-37.95-11.27-55.23-11.27s-30.75,3.65-40.41,10.95c-9.66,7.3-14.49,17.39-14.49,30.27,0,15.67,8.16,27.8,24.47,36.39,7.3,3.65,15.3,7.03,23.99,10.14s17.44,6.6,26.24,10.47c8.8,3.86,16.85,8.27,24.15,13.2,7.3,4.94,13.2,11.75,17.71,20.45,4.51,8.69,6.76,19.75,6.76,33.17s-3.76,24.85-11.27,34.29c-7.52,9.45-16.58,15.83-27.21,19.16s-23.02,4.99-37.19,4.99c-26.4,0-48.95-6.55-67.62-19.64l1.61-2.58c7.08,5.58,16.26,10.14,27.53,13.69s22.81,5.31,34.62,5.31c17.39,0,32.25-4.03,44.6-12.08,12.34-8.05,18.52-19.91,18.52-35.58,0-17.17-8.16-30.59-24.47-40.25-7.3-4.29-15.3-8.26-23.99-11.91-8.69-3.65-17.44-7.46-26.24-11.43-8.81-3.97-16.86-8.42-24.15-13.36-16.32-10.73-24.47-25.97-24.47-45.73,0-15.67,5.26-28.39,15.78-38.16S551.41.21,572.56.21s42.67,3.65,64.56,10.95l-1.29,3.22h-.01Z"/>
  </g>
  <ellipse class="cls-2" cx="676.14" cy="212.87" rx="12.56" ry="13.7"/>
</svg>