<?xml version="1.0" encoding="UTF-8"?>
<svg id="Layer_1" xmlns="http://www.w3.org/2000/svg" version="1.1" viewBox="0 0 617.7 227.6">
  <!-- Generator: Adobe Illustrator 29.1.0, SVG Export Plug-In . SVG Version: 2.1.0 Build 142)  -->
  <defs>
    <style>
      .st0 {
        fill: #fff;
        stroke: #000;
        stroke-miterlimit: 10;
      }
    </style>
  </defs>
  <polygon class="st0" points="195.7 137.9 195.7 226.4 169 226.4 169 1 195.7 1 195.7 134.1 300.4 79.7 300.4 1 327.1 1 327.1 226.4 300.4 226.4 300.5 83.2 195.7 137.9"/>
  <path class="st0" d="M604,14.7c-19.5-7.5-38-11.3-55.2-11.3s-30.8,3.7-40.4,10.9c-9.7,7.3-14.5,17.4-14.5,30.3s8.2,27.8,24.5,36.4c7.3,3.7,15.3,7,24,10.1s17.4,6.6,26.2,10.5c8.8,3.9,16.8,8.3,24.2,13.2,7.3,4.9,13.2,11.8,17.7,20.4,4.5,8.7,6.8,19.8,6.8,33.2s-3.8,24.9-11.3,34.3c-7.5,9.4-16.6,15.8-27.2,19.2s-23,5-37.2,5c-26.4,0-49-6.6-67.6-19.6l1.6-2.6c7.1,5.6,16.3,10.1,27.5,13.7s22.8,5.3,34.6,5.3c17.4,0,32.2-4,44.6-12.1,12.3-8.1,18.5-19.9,18.5-35.6s-8.2-30.6-24.5-40.2c-7.3-4.3-15.3-8.3-24-11.9s-17.4-7.5-26.2-11.4c-8.8-4-16.9-8.4-24.1-13.4-16.3-10.7-24.5-26-24.5-45.7s5.3-28.4,15.8-38.2,26.4-14.6,47.5-14.6,42.7,3.7,64.6,10.9l-1.3,3.2h0Z"/>
  <path class="st0" d="M82.9,226.4h-26.7V4.2H.5V1h138.5v3.2h-56v222.2h0Z"/>
  <polygon class="st0" points="416.9 108.3 417.1 .6 443.5 .6 443.5 225.9 417.1 225.9 417.1 117.4 358 2.3 361.9 2.2 416.9 108.3"/>
</svg>