<?xml version="1.0" encoding="UTF-8"?>
<svg id="Layer_1" data-name="Layer 1" xmlns="http://www.w3.org/2000/svg" viewBox="0 0 617.7 227.6">
  <defs>
    <style>
      .cls-1 {
        fill: #fff;
        stroke: #000;
        stroke-miterlimit: 10;
      }
    </style>
  </defs>
  <polygon class="cls-1" points="195.71 137.92 195.71 226.38 168.98 226.38 168.98 .98 195.71 .98 195.71 134.14 300.36 79.74 300.36 .98 327.09 .98 327.09 226.38 300.36 226.38 300.55 83.19 195.71 137.92"/>
  <path class="cls-1" d="M604.01,14.66c-19.54-7.51-37.95-11.27-55.23-11.27s-30.75,3.65-40.41,10.95-14.49,17.39-14.49,30.27c0,15.67,8.16,27.8,24.47,36.39,7.3,3.65,15.3,7.03,23.99,10.14s17.44,6.6,26.24,10.47c8.8,3.86,16.85,8.27,24.15,13.2,7.3,4.94,13.2,11.75,17.71,20.45,4.51,8.69,6.76,19.75,6.76,33.17s-3.76,24.85-11.27,34.29c-7.52,9.45-16.58,15.83-27.21,19.16-10.63,3.33-23.02,4.99-37.19,4.99-26.4,0-48.95-6.55-67.62-19.64l1.61-2.58c7.08,5.58,16.26,10.14,27.53,13.69s22.81,5.31,34.62,5.31c17.39,0,32.25-4.03,44.6-12.08,12.34-8.05,18.52-19.91,18.52-35.58,0-17.17-8.16-30.59-24.47-40.25-7.3-4.29-15.3-8.26-23.99-11.91-8.69-3.65-17.44-7.46-26.24-11.43-8.81-3.97-16.86-8.42-24.15-13.36-16.32-10.73-24.47-25.97-24.47-45.73,0-15.67,5.26-28.39,15.78-38.16s26.35-14.65,47.5-14.65,42.67,3.65,64.56,10.95l-1.29,3.22h-.01Z"/>
  <path class="cls-1" d="M82.93,226.38h-26.73V4.2H.5V.98h138.47v3.22h-56.03v222.19h-.01Z"/>
  <path class="cls-1" d="M417.06,225.93V.57h26.46v225.36h-26.46Z"/>
  <polygon class="cls-1" points="417.06 112.66 360.47 2.06 358 2.29 417.06 117.45 417.06 112.66"/>
</svg>