<?xml version="1.0" encoding="UTF-8"?>
<svg id="Layer_1" data-name="Layer 1" xmlns="http://www.w3.org/2000/svg" viewBox="0 0 616.71 349">
  <defs>
    <style>
      .cls-1 {
        fill: #231f20;
      }
    </style>
  </defs>
  <polygon class="cls-1" points="195.21 181.17 195.21 269.63 168.48 269.63 168.48 44.23 195.21 44.23 195.21 177.39 299.86 122.99 299.86 44.23 326.59 44.23 326.59 269.63 299.86 269.63 300.05 126.44 195.21 181.17"/>
  <path class="cls-1" d="M603.51,57.91c-19.54-7.51-37.95-11.27-55.23-11.27s-30.75,3.65-40.41,10.95c-9.66,7.3-14.49,17.39-14.49,30.27,0,15.67,8.16,27.8,24.47,36.39,7.3,3.65,15.3,7.03,23.99,10.14,8.69,3.11,17.44,6.6,26.24,10.47,8.8,3.86,16.85,8.27,24.15,13.2,7.3,4.94,13.2,11.75,17.71,20.45,4.51,8.69,6.76,19.75,6.76,33.17s-3.76,24.85-11.27,34.29c-7.52,9.45-16.58,15.83-27.21,19.16-10.63,3.33-23.02,4.99-37.19,4.99-26.4,0-48.95-6.55-67.62-19.64l1.61-2.58c7.08,5.58,16.26,10.14,27.53,13.69s22.81,5.31,34.62,5.31c17.39,0,32.25-4.03,44.6-12.08,12.34-8.05,18.52-19.91,18.52-35.58,0-17.17-8.16-30.59-24.47-40.25-7.3-4.29-15.3-8.26-23.99-11.91-8.69-3.65-17.44-7.46-26.24-11.43-8.81-3.97-16.86-8.42-24.15-13.36-16.32-10.73-24.47-25.97-24.47-45.73,0-15.67,5.26-28.39,15.78-38.16,10.52-9.77,26.35-14.65,47.5-14.65s42.67,3.65,64.56,10.95l-1.29,3.22Z"/>
  <path class="cls-1" d="M82.43,269.63h-26.73V47.45H0v-3.22h138.47v3.22h-56.03v222.19Z"/>
  <path class="cls-1" d="M416.56,269.18V43.82h26.46v225.36h-26.46Z"/>
  <polygon class="cls-1" points="416.56 155.91 359.97 45.31 357.5 45.54 416.56 160.7 416.56 155.91"/>
</svg>